<svg width="197" height="23" viewBox="0 0 197 23" fill="none" xmlns="http://www.w3.org/2000/svg">
<g clip-path="url(#clip0_104_2480)">
<path d="M88.424 12.7138H81.2722C81.2287 13.0311 81.1025 13.587 80.8934 14.3815C80.7694 14.9301 80.5921 15.4658 80.364 15.9812L80.5676 16.2332H88.6276C88.7701 15.1303 89.0718 14.053 89.5236 13.0337L89.267 12.7178L88.424 12.7138Z" fill="#002B52"/>
<path d="M26.3101 2.05964C26.4837 1.87378 26.7162 1.75114 26.9699 1.7117C27.035 1.7117 27.2794 1.68371 27.7071 1.66371L27.8415 1.52374V0.507914L27.7071 0.35594L26.8925 0.379936V0.35594L23.9805 0.443925C23.5162 0.443925 22.8157 0.399932 21.8708 0.35594L21.8382 0.391934L21.0236 0.35594L20.877 0.523911V1.51574L21.0114 1.67171C21.826 1.7357 22.3066 1.77969 22.4613 1.81569C22.5572 1.82606 22.65 1.85511 22.7342 1.90113C22.8185 1.94715 22.8926 2.00923 22.9522 2.08371C23.0117 2.1582 23.0555 2.2436 23.081 2.33493C23.1065 2.42625 23.1132 2.52165 23.1007 2.61555C23.0498 3.17152 22.96 3.7234 22.8319 4.26726L20.7345 13.8136C18.4972 7.43604 16.9495 2.85684 16.0915 0.0759888H13.9981C13.827 0.609229 13.5922 1.28911 13.2935 2.11563L11.6929 6.56686C11.0046 8.44653 10.4711 9.84629 10.1453 10.7821L8.98859 13.9816L8.4795 11.29C8.13738 9.46236 7.89302 8.13859 7.75862 7.32273L7.29432 4.46723C7.17485 3.82275 7.0892 3.17267 7.03774 2.51956C7.02079 2.31595 7.07857 2.11309 7.20065 1.94766C7.39326 1.79781 7.63101 1.71483 7.87673 1.7117C7.96226 1.7117 8.30844 1.67971 8.92343 1.64772L9.05783 1.50774V0.507914L8.92343 0.35594L8.10888 0.383935L8.08444 0.35594C6.47569 0.41193 5.20092 0.439925 4.25196 0.447924C3.43741 0.447924 2.37034 0.41193 0.993742 0.35594L0.965233 0.387934L0.150679 0.35594L0.00405884 0.523911V1.51574L0.134387 1.65571C0.491249 1.67241 0.846464 1.71384 1.19738 1.77969C1.53135 1.86368 1.79201 2.23561 1.97121 2.8875C2.04723 3.15412 2.17349 3.75002 2.34998 4.67519L5.69779 22.5241H8.51615L9.11485 20.8124C9.74477 18.986 10.2362 17.5969 10.5892 16.6451L13.6845 8.24657L13.8189 8.6465L14.5927 10.8701C15.5593 13.6696 16.6183 16.8437 17.7695 20.3925L18.4578 22.5401H21.378C21.4431 21.9162 21.7282 20.4938 22.2332 18.2728L23.4551 12.8938C23.9981 10.4942 24.419 8.68782 24.7176 7.4747C25.3041 5.09112 25.7114 3.55672 25.9395 2.8715C26.0131 2.58305 26.1431 2.3114 26.3223 2.07164L26.3101 2.05964Z" fill="#002B52"/>
<path d="M78.7348 16.9611H77.9203L77.7533 17.113L77.4275 19.0487C77.39 19.3689 77.3035 19.6817 77.1709 19.9765C77.1169 20.0552 77.0404 20.1165 76.951 20.1525C76.3563 20.3925 74.7367 20.5111 72.0921 20.5084H71.0943C71.0454 19.2327 71.0251 17.9169 71.0251 16.5571V7.26674C70.9883 5.65705 71.0468 4.04662 71.2002 2.44358C71.2083 2.31202 71.2571 2.18602 71.3401 2.08241C71.4231 1.97879 71.5362 1.90249 71.6645 1.86368C72.1906 1.78317 72.7209 1.73243 73.2529 1.71171L73.3873 1.57173V0.499917L73.2732 0.355942C73.0329 0.355942 72.7641 0.383937 72.4587 0.395935L72.422 0.355942C71.5301 0.415931 70.2512 0.443927 68.6018 0.451925C66.9523 0.459924 65.7753 0.415931 64.9363 0.355942L64.8955 0.399934C64.5982 0.399934 64.3294 0.371939 64.081 0.355942L63.9466 0.499917V1.55573L64.081 1.71171C64.6129 1.73351 65.1432 1.78425 65.6694 1.86368C65.7958 1.90432 65.9069 1.98134 65.9883 2.08474C66.0696 2.18814 66.1174 2.31316 66.1255 2.44358C66.2833 4.04633 66.3418 5.65702 66.3007 7.26674V15.1534L66.2599 18.6448C66.2916 19.3359 66.2424 20.0283 66.1133 20.7084C65.8001 21.0656 65.4351 21.3755 65.0299 21.6282L64.9607 21.8122V22.2521L65.0992 22.4081C65.315 22.3881 65.5838 22.3721 65.9137 22.3601L65.9585 22.4081C66.5409 22.3561 67.4899 22.3241 68.8095 22.3161L78.4782 22.4081H79.3132L79.4516 22.2521C79.4275 20.5354 79.5146 18.8189 79.7123 17.113L79.5616 16.9611H78.7348Z" fill="#002B52"/>
<path d="M32.1138 13.8776L34.4842 6.93479L36.9563 13.8776C36.3332 13.9136 35.5349 13.9136 34.5819 13.9136C33.6289 13.9136 32.7655 13.8936 32.1383 13.8656L32.1138 13.8776ZM44.9919 20.8964C44.7638 20.8044 44.5073 20.3925 44.2303 19.6526L37.0256 0.247955H34.2561C33.7266 1.84768 33.3275 3.02347 33.0628 3.81134L29.5317 13.9736C28.1497 17.9329 27.3514 20.0952 27.1369 20.4604C26.9251 20.8284 26.3549 21.0403 25.4223 21.0963L25.2756 21.2563V22.2641L25.41 22.4081L26.2246 22.3761L26.2572 22.4081C27.3432 22.3601 28.1361 22.3308 28.6357 22.3201C29.2167 22.3201 30.1372 22.3494 31.397 22.4081L31.4214 22.3801L32.236 22.4081L32.3704 22.2521V21.2563L32.236 21.0963C31.7725 21.0812 31.3103 21.0412 30.8513 20.9764C30.7621 20.9718 30.6747 20.9499 30.5942 20.9119C30.5136 20.874 30.4416 20.8208 30.3821 20.7553C30.3227 20.6899 30.277 20.6135 30.2478 20.5306C30.2185 20.4478 30.2063 20.36 30.2118 20.2725C30.3441 19.3496 30.572 18.4424 30.892 17.5649L31.4907 15.6693C32.5985 15.6693 33.4782 15.6413 34.1502 15.6373C35.3313 15.6373 36.488 15.6373 37.6243 15.6693L38.7199 18.9527C38.9051 19.424 39.0323 19.9154 39.0986 20.4164C39.0986 20.7884 38.8502 20.9923 38.3533 21.0243L37.1722 21.0963L37.0256 21.2723V22.2521L37.1478 22.4081L37.9623 22.3801L37.9868 22.4081C39.2493 22.3521 40.6096 22.3241 42.0595 22.3161C42.6216 22.3161 43.7375 22.3561 45.4236 22.4081V22.3841L46.2382 22.4081L46.3563 22.2521V21.2563L46.2382 21.0883C45.8005 21.1084 45.3631 21.0431 44.9512 20.8964H44.9919Z" fill="#002B52"/>
<path d="M61.8939 16.9611H61.0794L60.945 17.129L60.6232 19.0647C60.5851 19.3852 60.4971 19.6981 60.3626 19.9925C60.3102 20.0711 60.235 20.1324 60.1467 20.1685C59.5494 20.4085 57.9298 20.5271 55.2879 20.5244H54.286C54.2398 19.25 54.2168 17.9329 54.2168 16.5731V7.26674C54.18 5.65705 54.2385 4.04662 54.3919 2.44358C54.4011 2.31235 54.4504 2.18687 54.5331 2.08346C54.6159 1.98005 54.7285 1.90347 54.8562 1.86368C55.3823 1.78344 55.9126 1.7327 56.4446 1.71171L56.579 1.57173V0.499917L56.4446 0.355942C56.2043 0.355942 55.9355 0.383937 55.63 0.395935L55.5893 0.355942C54.6974 0.415931 53.4226 0.443927 51.7731 0.451925C50.1236 0.459924 48.9425 0.415931 48.1076 0.355942L48.0669 0.399934C47.7696 0.399934 47.5048 0.371939 47.2523 0.355942L47.1179 0.499917V1.55573L47.2523 1.71171C47.7843 1.73324 48.3145 1.78398 48.8407 1.86368C48.9676 1.90414 49.0793 1.981 49.1613 2.08436C49.2434 2.18772 49.292 2.31283 49.3009 2.44358C49.4565 4.04647 49.515 5.65703 49.4761 7.26674V15.1534L49.4353 18.6448C49.4537 19.3389 49.3894 20.0329 49.2439 20.7124C48.9333 21.0721 48.5679 21.3824 48.1605 21.6322L48.0913 21.8162V22.2561L48.2298 22.4121C48.4456 22.3921 48.7144 22.3761 49.0443 22.3641L49.0891 22.4121C49.6715 22.3601 50.6205 22.3281 51.9401 22.3201L61.6048 22.4121H62.4193L62.5578 22.2561C62.5511 20.537 62.6558 18.8191 62.8714 17.113L62.7248 16.9611H61.8939Z" fill="#002B52"/>
<path d="M177.011 16.9611H176.196L176.062 17.129L175.736 19.0647C175.699 19.3849 175.612 19.6977 175.479 19.9925C175.425 20.0712 175.349 20.1325 175.26 20.1685C174.662 20.4085 173.043 20.5271 170.401 20.5244H169.391C169.342 19.2487 169.321 17.9329 169.321 16.5731V11.8219C169.761 11.786 170.238 11.766 170.735 11.758C171.232 11.75 171.659 11.786 172.083 11.8219C172.82 11.8979 173.256 12.0459 173.402 12.2699C173.549 12.4938 173.618 13.1977 173.618 14.3935L173.757 14.5495H175.5L175.634 14.4095C175.602 13.1617 175.581 12.0099 175.581 10.9701C175.581 10.0063 175.602 8.93845 175.634 7.77065L175.5 7.61068H173.814L173.679 7.77065C173.634 8.97044 173.541 9.68232 173.394 9.86629C173.248 10.0503 172.816 10.0902 171.985 10.1022H170.722C170.315 10.1022 169.863 10.0663 169.313 10.0263V6.82682C169.313 4.89915 169.362 3.38342 169.46 2.2956C170.152 2.23561 170.832 2.20762 171.496 2.19562C172.038 2.19562 172.633 2.25161 173.296 2.3116C174.168 2.39559 174.653 2.50757 174.75 2.65554C174.848 2.80352 174.958 3.65537 174.966 5.05512L175.105 5.2111H175.907L175.932 5.1791L175.96 5.2111H176.75L176.885 5.03913L176.978 3.59538C177.003 3.20878 177.043 2.74086 177.1 2.19162L177.276 0.467922L177.129 0.355942H176.314C171.952 0.415931 168.882 0.443927 167.085 0.451925C165.367 0.451925 164.072 0.415931 163.22 0.355942L163.184 0.399934C162.882 0.399934 162.614 0.371939 162.369 0.355942L162.235 0.499917V1.55573L162.369 1.71171C162.901 1.73297 163.431 1.78371 163.958 1.86368C164.085 1.90365 164.197 1.98038 164.279 2.08384C164.361 2.1873 164.409 2.31267 164.418 2.44358C164.576 4.04633 164.634 5.65702 164.593 7.26674V15.1534L164.552 18.6448C164.585 19.3361 164.534 20.0287 164.402 20.7084C164.092 21.0674 163.728 21.3776 163.322 21.6282L163.249 21.8122V22.2521L163.387 22.4081C163.603 22.3881 163.876 22.3721 164.202 22.3601L164.251 22.4081C164.833 22.3561 165.782 22.3241 167.102 22.3161L176.771 22.4081H177.605L177.744 22.2521C177.714 20.5357 177.796 18.8192 177.988 17.113L177.838 16.9611H177.011Z" fill="#002B52"/>
<path d="M102.711 10.0223C102.238 9.81574 101.742 9.66408 101.233 9.57033C100.361 9.39037 99.8359 9.29038 99.6444 9.25839C97.8239 8.92245 96.6713 8.57851 96.1867 8.21857C95.4346 7.656 95.0585 6.77882 95.0585 5.58703C95.017 4.59653 95.374 3.62976 96.0523 2.89549C96.683 2.24634 97.5427 1.85859 98.4552 1.81168C99.1312 1.85435 99.7924 2.02549 100.402 2.3156C101.006 2.57926 101.517 3.01366 101.868 3.56338C101.961 4.36933 102.006 5.17989 102.003 5.99096L102.141 6.14293H103.819L103.974 5.99096C103.995 4.5001 104.125 3.01262 104.361 1.53973L104.267 1.1678C102.969 0.386598 101.261 -0.00266786 99.1435 -1.65571e-06C99.0295 -1.65571e-06 98.9195 -1.65571e-06 98.8095 -1.65571e-06C98.6996 -1.65571e-06 98.4715 -1.65571e-06 98.3004 -1.65571e-06C95.9464 -1.65571e-06 94.1082 0.666549 92.7859 1.99965C91.5641 3.26343 90.9165 4.95914 90.9165 7.08677C90.9165 9.13441 91.4908 10.6435 92.6393 11.614C93.4022 12.2592 94.9893 12.7924 97.4003 13.2137C98.2169 13.3153 99.0101 13.5519 99.7463 13.9136C100.716 14.4815 101.2 15.4333 101.2 16.7611C101.201 17.5547 101.018 18.3381 100.667 19.0527C100.379 19.6811 99.9138 20.2153 99.3261 20.5917C98.7384 20.9681 98.0531 21.171 97.3515 21.1763C96.54 21.1056 95.755 20.8569 95.0544 20.4484C94.306 20.0674 93.6947 19.4699 93.3031 18.7367C93.2067 17.9736 93.1524 17.206 93.1402 16.4371V16.0772L93.018 15.9212H91.3075L91.1731 16.0772C91.2087 17.7798 91.0791 19.4818 90.7862 21.1603L90.945 21.5043C92.6467 22.4674 94.5729 22.9826 96.5369 23C96.708 23 96.879 23 97.046 23H97.38C98.7384 23.0343 100.087 22.7678 101.326 22.2201C102.524 21.6552 103.531 20.7639 104.226 19.6526C105.1 18.296 105.55 16.7181 105.521 15.1134C105.562 13.9688 105.304 12.8329 104.772 11.8139C104.307 11.0065 103.582 10.3734 102.711 10.0143V10.0223Z" fill="#002B52"/>
<path d="M196.862 0.291946C196.67 0.319942 196.405 0.339938 196.08 0.359935L196.023 0.291946C195.224 0.398595 193.279 0.451919 190.186 0.451919H185.531C182.178 0.451919 180.232 0.398595 179.695 0.291946L179.638 0.367933C179.374 0.357759 179.112 0.332387 178.852 0.291946L178.734 0.451919C178.831 1.22031 178.885 1.99332 178.897 2.76752L178.921 5.42705L179.072 5.58703H180.77L180.904 5.42705C180.925 4.85115 180.965 4.28325 181.031 3.73535C181.045 3.39369 181.114 3.05635 181.234 2.73552C181.305 2.62766 181.409 2.54496 181.532 2.49956C181.804 2.39158 182.753 2.33159 184.362 2.33159H185.462C185.49 2.65554 185.503 4.09528 185.503 6.65884V15.5133C185.538 17.115 185.48 18.7174 185.327 20.3125C185.322 20.4446 185.274 20.5716 185.192 20.6762C185.109 20.7807 184.996 20.8577 184.867 20.8964C184.343 20.9839 183.814 21.0374 183.283 21.0563L183.144 21.2083V22.2641L183.271 22.4081L184.085 22.3641L184.126 22.4081C184.908 22.3521 186.162 22.3201 187.877 22.3161C189.592 22.3121 190.813 22.3521 191.636 22.4081L191.677 22.3681C191.978 22.3681 192.247 22.3921 192.491 22.4081L192.63 22.2521V21.2083L192.491 21.0563C191.96 21.0371 191.431 20.9836 190.907 20.8964C190.773 20.8626 190.653 20.7878 190.566 20.6828C190.478 20.5779 190.426 20.4481 190.418 20.3125C190.264 18.7175 190.205 17.115 190.243 15.5133V6.65884C190.243 4.13928 190.243 2.69953 190.268 2.33159H191.241C192.762 2.33159 193.613 2.34759 193.795 2.37958C194 2.3951 194.196 2.47493 194.352 2.60737C194.508 2.7398 194.617 2.91787 194.662 3.11546C194.755 3.88942 194.805 4.66776 194.813 5.44705L194.96 5.59102H196.678L196.813 5.43105L196.837 2.8355C196.845 2.04348 196.903 1.25271 197.012 0.467916L196.878 0.311943L196.862 0.291946Z" fill="#002B52"/>
<path d="M160.17 16.9611H159.355L159.209 17.113L158.887 19.0487C158.847 19.3688 158.759 19.6814 158.626 19.9765C158.573 20.0561 158.496 20.1176 158.406 20.1525C157.812 20.3925 156.192 20.5111 153.548 20.5084H152.55C152.504 19.234 152.481 17.9169 152.481 16.5571V11.8219C152.92 11.786 153.397 11.766 153.894 11.758C154.391 11.75 154.818 11.786 155.246 11.8219C155.983 11.8979 156.415 12.0459 156.566 12.2699C156.716 12.4938 156.777 13.1977 156.777 14.3935L156.916 14.5495H158.667L158.801 14.4095C158.769 13.1617 158.753 12.0099 158.753 10.9701C158.753 10.0063 158.753 8.93845 158.801 7.77065L158.667 7.61068H156.981L156.847 7.77065C156.802 8.97044 156.708 9.68232 156.566 9.86629C156.423 10.0503 155.987 10.0902 155.152 10.1022H153.894C153.486 10.1022 153.03 10.0663 152.481 10.0263V6.82682C152.481 4.89915 152.533 3.38342 152.627 2.2956C153.32 2.23561 154.004 2.20762 154.664 2.19562C155.201 2.19562 155.8 2.25161 156.46 2.3116C157.331 2.39559 157.816 2.50757 157.914 2.65554C158.011 2.80352 158.125 3.65537 158.134 5.05512L158.272 5.2111H159.058L159.087 5.1791L159.115 5.2111H159.901L160.036 5.03913L160.129 3.59538C160.158 3.19545 160.198 2.73953 160.255 2.19162L160.431 0.48392L160.28 0.355942H159.465C155.105 0.417264 152.03 0.449259 150.24 0.451925C148.522 0.451925 147.227 0.415931 146.375 0.355942L146.335 0.399934C146.033 0.399934 145.765 0.371939 145.52 0.355942L145.386 0.499917V1.55573L145.52 1.71171C146.052 1.73324 146.582 1.78398 147.109 1.86368C147.235 1.90384 147.347 1.98072 147.428 2.08422C147.51 2.18773 147.557 2.313 147.565 2.44358C147.725 4.0462 147.784 5.65693 147.744 7.26674V15.1534L147.699 18.6448C147.729 19.3359 147.68 20.0281 147.552 20.7084C147.242 21.0681 146.876 21.3784 146.469 21.6282L146.4 21.8122V22.2521L146.538 22.4081C146.754 22.3881 147.023 22.3721 147.353 22.3601L147.398 22.4081C147.98 22.3561 148.929 22.3241 150.249 22.3161L159.913 22.4081H160.748L160.887 22.2521C160.863 20.5354 160.95 18.8189 161.147 17.113L161.001 16.9611H160.17Z" fill="#002B52"/>
<path d="M143.944 20.8684C143.537 20.5644 142.722 19.3246 141.5 17.145L139.411 13.4577C138.906 12.5672 138.425 11.686 137.969 10.8141C140.741 9.63033 142.126 7.63068 142.123 4.81517C142.135 4.20396 142.053 3.59452 141.879 3.00748C141.735 2.51917 141.483 2.06814 141.141 1.68654C140.798 1.30494 140.375 1.00218 139.9 0.799864C139.167 0.47992 138.018 0.315948 136.45 0.315948H135.587C134.915 0.315948 133.888 0.347943 132.524 0.411932C131.905 0.439927 131.103 0.455924 130.145 0.459924C128.516 0.459924 127.303 0.427929 126.504 0.36394L126.464 0.407932C126.162 0.407932 125.893 0.379937 125.649 0.36394L125.515 0.507915V1.55573L125.649 1.71171C126.181 1.73351 126.711 1.78425 127.237 1.86368C127.364 1.90432 127.475 1.98133 127.556 2.08474C127.638 2.18814 127.686 2.31316 127.694 2.44358C127.851 4.04633 127.91 5.65702 127.869 7.26674V15.5133C127.916 17.1146 127.864 18.7173 127.714 20.3125C127.706 20.4425 127.658 20.5672 127.577 20.67C127.496 20.7728 127.384 20.849 127.258 20.8884C126.732 20.9749 126.202 21.0284 125.669 21.0483L125.535 21.2003V22.2561L125.669 22.4001L126.484 22.3561L126.529 22.4001C127.303 22.3441 128.565 22.3121 130.276 22.3081C131.986 22.3041 133.204 22.3441 134.039 22.4001L134.072 22.3601C134.377 22.3601 134.646 22.3841 134.886 22.4001L135.008 22.2441V21.2083L134.878 21.0563C134.346 21.0378 133.815 20.9844 133.29 20.8964C133.156 20.8619 133.038 20.7868 132.951 20.6819C132.863 20.577 132.812 20.4476 132.805 20.3125C132.65 18.7175 132.592 17.115 132.63 15.5133V7.36272C132.63 4.90982 132.675 3.17678 132.764 2.16363C133.085 2.10422 133.411 2.06946 133.738 2.05965C134.378 2.06249 135.009 2.20454 135.587 2.47557C136.727 3.0888 137.297 4.27126 137.297 6.02296C137.32 6.92298 137.12 7.81503 136.715 8.6225C136.431 9.22966 135.991 9.7545 135.44 10.1462C134.805 10.5002 134.08 10.6668 133.351 10.6262H132.891L132.736 11.1381C133.053 11.4148 133.327 11.7354 133.55 12.0899L135.053 14.7134L138.438 21.1603C138.667 21.5507 138.84 21.9707 138.951 22.4081L139.765 22.3601C139.767 22.3761 139.767 22.3921 139.765 22.4081C140.498 22.3641 141.081 22.3321 141.525 22.3201L143.443 22.3921H143.956L143.981 22.3641H144.286H144.803L144.934 22.2081V21.2563L144.803 21.0963C144.495 21.1165 144.189 21.0363 143.932 20.8684H143.944Z" fill="#002B52"/>
<path d="M124.028 0.359935L123.971 0.291946C123.176 0.398595 121.231 0.451919 118.139 0.451919H113.484C110.13 0.451919 108.185 0.398595 107.647 0.291946L107.59 0.367933C107.327 0.359834 107.064 0.334448 106.804 0.291946L106.682 0.451919C106.783 1.21992 106.838 1.99316 106.845 2.76752L106.874 5.42705L107.02 5.58703H108.706L108.841 5.42705C108.841 4.85115 108.902 4.28325 108.963 3.73535C108.982 3.3942 109.05 3.05746 109.167 2.73552C109.24 2.62962 109.343 2.54747 109.464 2.49956C109.737 2.39158 110.686 2.33159 112.315 2.33159H113.414C113.439 2.65554 113.455 4.09528 113.455 6.65884V15.5133C113.491 17.115 113.432 18.7174 113.28 20.3125C113.272 20.4435 113.223 20.5689 113.14 20.6718C113.057 20.7747 112.944 20.8503 112.816 20.8884C112.292 20.9756 111.763 21.0291 111.231 21.0483L111.093 21.2003V22.2561L111.219 22.4001L112.034 22.3561L112.07 22.4001C112.857 22.3441 114.107 22.3121 115.826 22.3081C117.544 22.3041 118.758 22.3441 119.585 22.4001L119.621 22.3601C119.923 22.3601 120.196 22.3841 120.436 22.4001L120.574 22.2441V21.2083L120.436 21.0563C119.905 21.0371 119.376 20.9836 118.852 20.8964C118.719 20.8613 118.6 20.7861 118.513 20.6813C118.426 20.5765 118.375 20.4474 118.367 20.3125C118.215 18.7174 118.156 17.115 118.192 15.5133V6.65884C118.192 4.13928 118.192 2.69953 118.22 2.33159H119.194C120.714 2.33159 121.564 2.34759 121.743 2.37958C121.949 2.39551 122.145 2.47541 122.302 2.6077C122.458 2.74 122.568 2.91783 122.615 3.11546C122.708 3.88939 122.757 4.66779 122.761 5.44705L122.912 5.59102H124.611L124.745 5.43105L124.773 2.8355C124.779 2.03941 124.838 1.24453 124.949 0.455918L124.814 0.295946C124.623 0.323941 124.358 0.343937 124.028 0.363934V0.359935Z" fill="#002B52"/>
</g>
<defs>
<clipPath id="clip0_104_2480">
<rect width="197" height="23" fill="white"/>
</clipPath>
</defs>
</svg>
