<?xml version="1.0" encoding="UTF-8"?>
<svg id="Layer_1" data-name="Layer 1" xmlns="http://www.w3.org/2000/svg" viewBox="0 0 230.07 45.81">
  <defs>
    <style>
      .cls-1 {
        fill: #10223b;
      }

      .cls-2 {
        fill: #f47820;
      }
    </style>
  </defs>
  <g>
    <path class="cls-2" d="M95.6,2.66c1.53-.09,2.96.44,4.15,1.52,1.88,1.72,3.03,4.71,3.45,8.89.47,3.37.84,5.5,1.12,6.84,1.23-.46,2.66-.81,4.18-.77,1.53.04,2.4.7,3.27,1.53.82.78,1.42,1.82,1.7,3.03.02.11.06.22.07.34.46-.78,1-1.48,1.65-2.07.74-.69,1.61-1.22,2.62-1.53,2.06-.64,4.12-.41,5.81.64.14.09.29.19.42.29,2.05,1.12,3.34,3.3,3.34,6.7v1.55c.01.21.02.42.03.63.78-2.3,1.21-4.77,1.21-7.34C128.62,10.27,118.38.03,105.74.03c-3.9,0-7.56.98-10.77,2.7.21-.03.41-.05.63-.07Z"/>
    <path class="cls-2" d="M100.71,27.3c-1.77,1.96-2.65,4.43-2.35,6.61.08.64.27,1.14.51,1.45.41.5,1.34.66,1.92.31,1-.58,1.36-2.28,1.48-3.25.07-.55.11-1.1.12-1.69.05-1.57-.17-3.07-.52-4.55-.42.36-.82.74-1.17,1.13Z"/>
    <path class="cls-2" d="M123.29,35.67c.04-2.85.08-5.81-.36-8.53-.17-1.09-.75-2.04-1.53-2.53-.66-.41-1.46-.49-2.39-.2-2.93.9-3.89,7.26-4,11.54.02.66.02,1.33.02,2.01l-4.73.02v-5.23c0-2.71,1-9.87-2.78-9.58-.74.06-1.06.25-1.99.69.64,2.18,1.07,4.47,1,6.98-.02.71-.07,1.42-.16,2.09-.49,3.81-2.18,5.55-3.51,6.33-.88.5-1.85.75-2.83.75-1.67,0-3.33-.72-4.41-2.05-.74-.9-1.21-2.09-1.4-3.5-.46-3.37.8-7.1,3.37-9.94.83-.92,1.81-1.78,2.91-2.54-.34-1.35-.72-3.38-1.18-6.45,0,0,0,0,0,0h-.14s0,0,0,0c-1.69.02-4.19.33-5.94,1.82-1.44,1.23-2.16,3.06-2.18,5.62h0c-.03,1.18-.04,2.43-.03,3.79l-4.15.03c-.07-10.14.99-16.93,3.3-20.66-4.51,4.18-7.33,10.15-7.33,16.78,0,12.63,10.24,22.87,22.87,22.87,7.04,0,13.33-3.18,17.53-8.18,0-.64.01-1.28.02-1.93Z"/>
    <path class="cls-2" d="M96.95,7.24c-.47-.43-.86-.46-1.11-.44-.76.04-2.64.76-3.8,6.39,2.27-1.33,4.82-1.72,6.74-1.78-.53-2.67-1.39-3.76-1.83-4.16Z"/>
  </g>
  <g>
    <path class="cls-1" d="M10.44,18.88v9.29h-3.1v-.93c-.62.74-1.53,1.08-2.74,1.08C2.08,28.32.04,26.47.04,23.5s2.04-4.78,4.56-4.78c1.08,0,1.95.31,2.59.96v-.81h3.26ZM7.24,23.5c0-1.41-.86-2.19-1.95-2.19s-1.95.79-1.95,2.19.86,2.23,1.95,2.23,1.95-.81,1.95-2.23Z"/>
    <path class="cls-1" d="M11.8,27.36l.98-2.23c.86.53,2.11.86,3.24.86s1.46-.24,1.46-.63c0-1.25-5.49.17-5.49-3.55,0-1.75,1.61-3.09,4.53-3.09,1.3,0,2.74.27,3.67.79l-.98,2.21c-.93-.51-1.85-.69-2.67-.69-1.1,0-1.49.31-1.49.65,0,1.29,5.47-.1,5.47,3.58,0,1.71-1.58,3.05-4.59,3.05-1.58,0-3.21-.39-4.11-.96Z"/>
    <path class="cls-1" d="M32.32,23.52c0,2.95-2.04,4.8-4.56,4.8-1.08,0-1.95-.33-2.59-.98v4.15h-3.26v-12.62h3.1v.93c.62-.74,1.53-1.08,2.74-1.08,2.52,0,4.56,1.85,4.56,4.8ZM29.03,23.52c0-1.41-.86-2.21-1.95-2.21s-1.95.81-1.95,2.21.86,2.21,1.95,2.21,1.95-.81,1.95-2.21Z"/>
    <path class="cls-1" d="M45.42,18.72v2.93c-.29-.03-.5-.05-.74-.05-1.32,0-2.23.67-2.23,2.3v4.27h-3.26v-9.29h3.1v1.11c.67-.84,1.75-1.27,3.12-1.27Z"/>
    <path class="cls-1" d="M46.4,16.12c0-.98.79-1.73,1.99-1.73s1.99.7,1.99,1.68c0,1.03-.79,1.78-1.99,1.78s-1.99-.75-1.99-1.73ZM46.76,18.88h3.26v9.29h-3.26v-9.29Z"/>
    <path class="cls-1" d="M33.48,16.12c0-.98.79-1.73,1.99-1.73s1.99.7,1.99,1.68c0,1.03-.79,1.78-1.99,1.78s-1.99-.75-1.99-1.73ZM33.84,18.88h3.26v9.29h-3.26v-9.29Z"/>
    <path class="cls-1" d="M62.02,22.85v5.31h-3.26v-4.78c0-1.34-.58-1.9-1.53-1.9-1.05,0-1.85.65-1.85,2.19v4.49h-3.26v-9.29h3.1v1.01c.74-.77,1.78-1.17,2.95-1.17,2.18,0,3.84,1.25,3.84,4.13Z"/>
    <path class="cls-1" d="M74.19,18.88v7.59c0,3.51-1.99,5.18-5.45,5.18-1.78,0-3.48-.41-4.61-1.22l1.18-2.28c.77.62,2.04.99,3.14.99,1.75,0,2.49-.79,2.49-2.25v-.31c-.63.74-1.58,1.1-2.76,1.1-2.47,0-4.56-1.75-4.56-4.49s2.09-4.47,4.56-4.47c1.29,0,2.28.41,2.91,1.29v-1.13h3.1ZM70.97,23.2c0-1.13-.86-1.89-2.02-1.89s-2.04.75-2.04,1.89.87,1.9,2.04,1.9,2.02-.77,2.02-1.9Z"/>
  </g>
  <g>
    <path class="cls-1" d="M153.3,20.69v5.31h-3.26v-4.78c0-1.34-.55-1.9-1.41-1.9-.94,0-1.63.63-1.63,2.07v4.61h-3.26v-4.78c0-1.34-.53-1.9-1.41-1.9-.96,0-1.65.63-1.65,2.07v4.61h-3.26v-9.29h3.1v.98c.7-.75,1.68-1.13,2.78-1.13,1.27,0,2.35.46,3,1.46.74-.93,1.89-1.46,3.22-1.46,2.16,0,3.75,1.25,3.75,4.13Z"/>
    <path class="cls-1" d="M165.32,16.71v9.29h-3.1v-.93c-.62.74-1.53,1.08-2.74,1.08-2.52,0-4.56-1.85-4.56-4.82s2.04-4.78,4.56-4.78c1.08,0,1.95.31,2.59.96v-.81h3.26ZM162.11,21.34c0-1.41-.86-2.19-1.95-2.19s-1.95.79-1.95,2.19.86,2.23,1.95,2.23,1.95-.81,1.95-2.23Z"/>
    <path class="cls-1" d="M177.3,20.69v5.31h-3.26v-4.78c0-1.34-.58-1.9-1.53-1.9-1.05,0-1.85.65-1.85,2.19v4.49h-3.26v-9.29h3.1v1.01c.74-.77,1.78-1.17,2.95-1.17,2.18,0,3.84,1.25,3.84,4.13Z"/>
    <path class="cls-1" d="M189.3,16.71v9.29h-3.1v-.93c-.62.74-1.53,1.08-2.74,1.08-2.52,0-4.56-1.85-4.56-4.82s2.04-4.78,4.56-4.78c1.08,0,1.95.31,2.59.96v-.81h3.26ZM186.1,21.34c0-1.41-.86-2.19-1.95-2.19s-1.95.79-1.95,2.19.86,2.23,1.95,2.23,1.95-.81,1.95-2.23Z"/>
    <path class="cls-1" d="M201.39,16.71v7.59c0,3.51-1.99,5.18-5.45,5.18-1.78,0-3.48-.41-4.61-1.22l1.18-2.28c.77.62,2.04.99,3.14.99,1.75,0,2.49-.79,2.49-2.25v-.31c-.63.74-1.58,1.1-2.76,1.1-2.47,0-4.56-1.75-4.56-4.49s2.09-4.47,4.56-4.47c1.29,0,2.28.41,2.91,1.29v-1.13h3.1ZM198.16,21.03c0-1.13-.86-1.89-2.02-1.89s-2.04.75-2.04,1.89.87,1.9,2.04,1.9,2.02-.77,2.02-1.9Z"/>
    <path class="cls-1" d="M212.92,22.18h-6.75c.27.94,1.08,1.49,2.28,1.49.91,0,1.51-.26,2.14-.81l1.71,1.78c-.89.99-2.19,1.51-3.96,1.51-3.31,0-5.45-2.04-5.45-4.82s2.18-4.78,5.11-4.78c2.74,0,4.97,1.75,4.97,4.82,0,.24-.03.55-.05.81ZM206.12,20.46h3.81c-.17-.98-.89-1.59-1.9-1.59s-1.71.62-1.9,1.59Z"/>
    <path class="cls-1" d="M220.71,16.55v2.93c-.29-.03-.5-.05-.74-.05-1.32,0-2.23.67-2.23,2.3v4.27h-3.26v-9.29h3.1v1.11c.67-.84,1.75-1.27,3.12-1.27Z"/>
    <path class="cls-1" d="M221.33,25.19l.98-2.23c.86.53,2.11.86,3.24.86s1.46-.24,1.46-.63c0-1.25-5.49.17-5.49-3.55,0-1.75,1.61-3.09,4.53-3.09,1.3,0,2.74.27,3.67.79l-.98,2.21c-.93-.51-1.85-.69-2.67-.69-1.1,0-1.49.31-1.49.65,0,1.29,5.47-.1,5.47,3.58,0,1.71-1.58,3.05-4.59,3.05-1.58,0-3.21-.39-4.11-.96Z"/>
  </g>
</svg>