<svg xmlns="http://www.w3.org/2000/svg" width="98.006" height="47.342" viewBox="0 0 98.006 47.342">
  <g transform="translate(-305.826 -196.92)">
    <path
      d="M348.122,210.165H346.93v2.563h1.192c.991,0,2.083-.129,2.083-1.3,0-1.2-1.208-1.259-2.083-1.259m.287,4.482h-1.48v3.321h-2.442v-9.707h3.433a5.6,5.6,0,0,1,3.39.673,3,3,0,0,1,1.264,2.477c0,2.376-1.954,3.236-4.166,3.236"
      fill="#2e2556"/>
    <path
      d="M357.6,215h-1.063c-.589,0-1.279.143-1.279.859,0,.472.359.759.891.759a1.541,1.541,0,0,0,1.048-.343,1.265,1.265,0,0,0,.4-1Zm.172,2.964-.058-.7a2.962,2.962,0,0,1-2.183.873,2.192,2.192,0,0,1-2.443-2.176,1.922,1.922,0,0,1,.561-1.431,3.574,3.574,0,0,1,2.7-.9H357.6v-.186c0-.729-.56-.959-1.264-.959a3.262,3.262,0,0,0-1.954.774l-.976-1.346a4.172,4.172,0,0,1,3.06-1.145,3.364,3.364,0,0,1,2.514.815,3.663,3.663,0,0,1,.819,2.893v3.494Z"
      fill="#2e2556"/>
    <path
      d="M365.306,218.283a3.346,3.346,0,0,1-3.247,2.549,2.506,2.506,0,0,1-1.609-.459l.675-1.56a1.914,1.914,0,0,0,.732.172c.776,0,1.007-.416,1.294-1.118l-2.959-6.829h2.442l1.638,4.281,1.624-4.281h2.341Z"
      fill="#2e2556"/>
    <path
      d="M372.863,210.165h-1.192v2.563h1.192c.991,0,2.083-.129,2.083-1.3,0-1.2-1.206-1.259-2.083-1.259m.287,4.482h-1.48v3.321h-2.442v-9.707h3.433a5.6,5.6,0,0,1,3.39.673,3,3,0,0,1,1.264,2.477c0,2.376-1.954,3.236-4.166,3.236"
      fill="#2e2556"/>
    <path
      d="M381.713,212.57c-1.106,0-1.609.9-1.609,1.9,0,1.045.532,1.918,1.609,1.918s1.609-.873,1.609-1.918-.532-1.9-1.609-1.9m0,5.627a3.723,3.723,0,1,1,3.965-3.723,3.651,3.651,0,0,1-3.965,3.723"
      fill="#2e2556"/>
    <path d="M386.422,211.039h2.3v6.93h-2.3Zm1.149-.6a1.2,1.2,0,1,1,1.264-1.2,1.2,1.2,0,0,1-1.264,1.2" fill="#2e2556"/>
    <path
      d="M394.45,217.969v-3.938c0-.472-.014-.916-.389-1.16a1.221,1.221,0,0,0-.718-.2,1.337,1.337,0,0,0-.934.358,2.1,2.1,0,0,0-.359,1.517v3.423h-2.3v-6.931h2.155l.029.745a3.1,3.1,0,0,1,2.284-1.016,2.468,2.468,0,0,1,1.881.73,2.816,2.816,0,0,1,.647,2.133v4.339Z"
      fill="#2e2556"/>
    <path
      d="M401.706,218.183c-2.055,0-2.974-.86-2.974-2.678v-2.663h-1.465v-1.8h1.465v-.9l2.3-1.294v2.193h2.4v1.8h-2.4v1.933c0,.759.029,1.517,1.221,1.517a3,3,0,0,0,.976-.2l.6,1.618a4.378,4.378,0,0,1-2.125.472"
      fill="#2e2556"/>
    <g style="isolation:isolate">
      <path
        d="M319.741,244.262l-13.915-6.615V196.92h17a16.175,16.175,0,1,1,0,32.35h-3.089Zm0-28.862h3.089a2.3,2.3,0,1,0,0-4.61h-3.089Z"
        fill="#2e2556"/>
      <path
        d="M315.1,236.389l-4.638-2.211V201.543H322.83a11.551,11.551,0,1,1,0,23.1H315.1Zm0-16.365h7.728a6.928,6.928,0,1,0,0-13.856H315.1Z"
        fill="#f5d40e"/>
      <path d="M322.83,210.793h-3.089v4.61h3.089a2.3,2.3,0,1,0,0-4.61" fill="#f5d40e"/>
    </g>
  </g>
</svg>
